<svg xmlns="http://www.w3.org/2000/svg" version="1.1" xmlns:xlink="http://www.w3.org/1999/xlink" xmlns:svgjs="http://svgjs.dev/svgjs" viewBox="0 0 800 800" opacity="0.35"><defs><linearGradient x1="50%" y1="0%" x2="50%" y2="100%" id="ssscribble-grad"><stop stop-color="hsl(305, 77%, 50%)" stop-opacity="1" offset="0%"></stop><stop stop-color="hsl(305, 77%, 80%)" stop-opacity="1" offset="100%"></stop></linearGradient></defs><g fill="none" stroke-width="1" stroke="url(#ssscribble-grad)" stroke-linecap="round"><path d="M1284.59 559.53C1322.45 585.38 1322.88 612.82 1286.95 641.42 1222.83 669.66 1142.68 698.36 1061.86 726.58 994.45 753.36 951.31 778.26 937.71 799.92 954.8 818.48 995.97 832.03 1051.51 839.31 1113.16 842.2 1167.12 837.94 1204.37 826.33 1220.93 811.7 1212.08 791.73 1179.54 768.53 1127.17 748.33 1060.91 730.67 988.24 719.54 914.47 720.43 847 734.09 790.26 763.15 746.17 807.89 716.61 867.08 700.47 937.64 697.33 1012.71 703.45 1086.91 715.33 1152.09 733.16 1200.27 751.13 1226.04 766.65 1225.26 781.76 1199.97 791.46 1152.74 795.12 1091.41 793.09 1003.65 757.03 959.65 727.23 1033.81 704.91 1112.14 680.73 1195.78 655.5 1268.39 629.91 1315.62 604 1326.88 578.15 1298.59 552.29 1237.84 527.1 1157.51 502.34 1074.95 477.21 1006.83 451.77 965.73 425.33 957.8 397.49 983.87 367.36 1035.54 334.01 1100.73 298 1168.54 257.54 1223.22 212.03 1254.92 163.57 1259.65 110.18 1234.75 52.62 1184.67 -5.35 1116.04 -64.52 1038.28 -122.2 961.16 -173.92 891.81 -218.53 837.65 -252.38 801.88 -273.23 785.84 -279.17 787.61 -268.97 803.1 -246.11 830.51 -210.92 862.26 -167.67 893.23 -106.8 933.77 -65.09 956.54 -112.81 936 -173.12 911.25 -248.16 879.46 -328.75 842.92 -403.25 801.91 -461.25 759.1 -492.93 716.29 -493.91 671.83 -463.13 629.1 -405.7 589.03 -334.85 548.65 -262.31 511.51 -203.31 478.01 -172.49 444.51 -175.54 414.7 -213.4 388.85 -279.65 362.99 -358.13 341.7 -432.2 324.85 -488.96 307.98 -515.18 295.5 -506.52 287.12 -465.64 278.43 -399.29 273.27 -319.59 270.82 -239.16 266.72 -170.59 263.62 -122.98 259.83 -101.76 251.56 -107 239.66 -134.31 221.96 -179.26 196.43 -230.87 162.48 -279.97 118.96 -321.7 67.24 -347.11 7.06 -353.18 -59.6 -340.31 -127.57 -308.41 -194.82 -261.33 -256.11 -202.29 -305.5 -136.82 -339.54 -69.92 -354.03 -3.51 -348.8 57.28 -323.43 110.41 -281 156.11 -230.8 192.73 -178.1 221.18 -132.52 242.09 -105.5 257.08 -101.66 268.14 -125.34 274.65 -175.98 280.03 -247.49 285.92 -329.88 289.98 -409.66 296.32 -473.68 305.82 -509.75 314.87 -511.8 327.76 -478.32 344.85 -415.33 361.9 -337.88 383.26 -260.16 409.12 -199.41 434.97 -171.1 464.7 -179.73 498.01 -221.83 531.28 -289.33 568.01 -365.36 607.72 -433.72 646.97 -482.76 688.53 -500.73 731.38 -484.85 772.39 -438.62 812.93 -369.36 851.23 -288.87 884.97 -208.59 913.67 -140.28 935.21 -91.92 949.22 -68.08 953.81 -68.8 947.96 -90.05 934.67 -128.31 912.35 -173.73 882.93 -218.27 838.05 -271.76 784.9 -280.34 802.74 -233.31 839.34 -185.2 893.53 -129.05 962.18 -69 1038.21 -5.95 1114.86 55.21 1182.88 112.3 1233.25 166.35 1259.55 214.31 1257.29 256.22 1228.63 293.75 1176.9 326.11 1111.05 354.47 1045.94 379.71 991.94 402.71 961.03 424.69 962.35 445.22 996.18 466.14 1058.06 488.26 1137.24 510.02 1218.34 533.68 1284.59 559.53Q1284.59 559.53 1284.59 559.53" opacity="0.42"></path><path d="M1231.09 556.89C1267.39 580.89 1271.5 602.67 1243.7 622.04 1189.82 641.13 1118.63 657.28 1042.14 670.01 971.98 681.83 918.26 689.51 887.5 692.64 883.14 694.47 902.92 691.56 941.34 684.1 993.34 676.29 1048 665.27 1096.79 652.42 1145.25 638.41 1117.47 640.12 1047.16 668.88 985.31 702.99 919 748.58 853.29 804.96 790.6 868.38 735.57 936.68 690.02 1004.98 654.18 1066.68 628.68 1117.54 612.21 1151.93 604.5 1166.68 602.82 1159.73 604.84 1131.43 611.47 1087.9 618.47 1033.24 624.14 975.85 632.77 911.33 631.26 925.34 619.7 1012.24 610.04 1088.7 596.48 1164.8 579.24 1227.45 561.81 1265.97 541.06 1272.61 517.05 1245.09 493.04 1189.51 466.35 1116 437.02 1038.42 407.49 970.35 374.98 922.79 339.36 902.37 303.21 911.84 263.62 946.81 220.7 999.36 177.38 1061.96 131.12 1121.45 82.7 1168.12 35.43 1196.8 -12.13 1201.15 -58.19 1181.14 -99.62 1139.57 -136.21 1081.07 -165.5 1012.71 -186.03 940.32 -196.26 871.59 -194.77 811.94 -183.57 764.35 -161.51 731.66 -130.28 713.64 -96.04 710.1 -59.69 717.78 -26.19 733.14 -3 755.71 7.81 779.57 2.05 801.62 -23.04 823.02 -66.57 838.62 -126.31 847.48 -196.51 851.96 -270.73 849.16 -340.33 839.85 -396.35 826.22 -431.77 807.5 -440.95 785.05 -423.74 759.91 -381.49 732.75 -320.59 704.79 -253.36 675.65 -189.24 646.91 -140.11 619.33 -117.05 591.48 -123.59 565.37 -159.9 541.36 -220.75 517.35 -292.99 496.02 -363.31 477.11 -421.36 457.92 -455.25 440.59 -459.89 424.45 -435.76 407.14 -385.88 389.82 -318.48 371.41 -242.97 350.3 -169.9 326.39 -108.37 298.41 -64.91 266.12 -43.26 228.35 -43.28 184.46 -63.93 136.19 -98.85 82.32 -141.36 23.92 -187.69 -35.12 -228.8 -94.72 -259.64 -151.64 -279 -201.35 -282.5 -242 -270.37 -269.93 -244.25 -283.38 -205.58 -280.65 -157.83 -261.42 -102.72 -230.12 -44.51 -188.12 13.66 -140.73 71.71 -97.37 125.82 -62.12 174.83 -41.97 219.96 -43.36 259.29 -67.27 293.32 -113.54 323.31 -177.8 349.21 -252.92 372.16 -329.06 392.5 -395.17 411.49 -441.61 430.17 -460.35 447.69 -449.2 466.06 -408.72 485.94 -345.41 505.54 -272.58 527.22 -201.5 551.22 -145.91 575.23 -118.37 601 -122.57 628.16 -156.33 655.04 -214.23 682.75 -283.26 710.51 -350.46 737.11 -406.12 762.59 -438.62 785.81 -443.1 806.41 -419.91 823.14 -371.63 834.76 -305.83 842.34 -230.85 843.58 -156.62 837.86 -91.67 828.28 -41.96 812.44 -11.74 791.38 -1.49 770.21 -10.88 747.73 -35.01 726.97 -68.36 713.56 -108.32 707.87 -146.65 713.2 -178.61 732.54 -203.52 766 -216.15 813.71 -215.92 872.9 -204.22 940.74 -180.69 1012.07 -147.65 1079.58 -106.46 1137.76 -59.88 1179.82 -10.6 1201.26 41.65 1199.17 93.25 1173.31 142.66 1129.37 191.72 1071.93 237.28 1009.98 279 956.12 319.43 917.71 356.22 902.84 389.68 916.75 422.22 957.7 452.15 1020.5 479.82 1095.56 507.21 1170.24 532.88 1231.09 556.89Q1231.09 556.89 1231.09 556.89" opacity="0.95"></path><path d="M1177.61 417.13C1212.16 439.29 1219.36 457.55 1198.99 472.01 1155.11 486.46 1093.71 497.12 1023.85 504.18 954.7 511.39 895.01 515.31 851.46 516.46 828.52 518.58 827 519 844.79 518.84 879.67 521.53 924.25 525.68 971.84 532.92 1018.66 545.75 1056.62 564.09 1081.63 589.42 1092.86 622.18 1087.46 662.88 1066.5 711.47 1031.93 765.52 986.24 824.66 933.21 886.25 874.88 945.6 815.7 1000.62 758.68 1047.01 704.36 1080.88 655.96 1099.74 614.26 1101.21 578.68 1086.53 549.99 1055.84 527.28 1012.29 510.13 963.56 497.18 913.55 486.99 869.51 480.23 840.2 474.25 829.03 467.87 839.78 463.02 873.42 456.46 926.53 447.46 993.32 438.95 1065.2 427.4 1132.51 412.46 1185.17 397.61 1215.57 379.19 1218.16 357.03 1191.6 334.87 1141.08 309.49 1074.41 281.18 1002.43 252.95 935.96 221.97 884.27 188.69 853.8 155.89 848.32 121.4 866.34 86.05 903.38 52.22 954.92 18.84 1010.99 -12.79 1063.29 -53.25 1120.51 -101.73 1115.04 -103.62 1053.89 -96.08 996.39 -80.66 932.76 -58.05 868.26 -32.74 806 -3.99 750.84 25.29 705.19 58.29 657.78 60.86 629.35 16.92 638.88 -31.15 652.08 -90.58 666.16 -157.17 679.17 -224.52 693.04 -287.17 703.49 -338.29 709.76 -372.33 714.72 -385.23 714.99 -374.8 710.75 -343.76 704.95 -294.65 695.19 -234.05 682.02 -172.75 667.92 -117.87 651.2 -78.37 632.35 -62.38 613.23 -71.82 592.49 -106.38 570.33 -161.9 548.17 -227.83 525.11 -293.71 501.07 -351.51 476.76 -390.9 450.95 -406.66 423.25 -397.97 394.64 -365.1 363.35 -313.04 328.94 -248.24 292.98 -178.55 253.35 -111.89 209.98 -54.51 165.31 -11.87 117.41 13.45 67.16 20.15 17.77 10.29 -31.63 -12.57 -78.99 -46.5 -121.08 -84.63 -157.27 -122.05 -184.97 -170.86 -205.88 -205.01 -172.38 -185.8 -122.54 -159.64 -84.21 -125.1 -45.24 -84.6 -10.81 -38.79 11.98 9.31 21.05 57.72 12.79 107.25 -14.69 154.76 -59.88 199.35 -119.77 242.91 -188.32 282.93 -258.81 319.43 -322.86 354.55 -372.41 386.57 -401.02 415.86 -404.09 444.32 -382.19 470.75 -337.03 495.5 -274.95 520.01 -207.35 543.31 -142.92 565.47 -92.4 587.63 -65.83 608.12 -66.16 626.78 -92.16 645.19 -140.44 661.29 -201.23 674.63 -264.55 691.65 -344.06 704.63 -371.92 699.14 -313.58 692.95 -253.3 682.89 -185.23 669.75 -116.73 657.73 -53.41 644.94 -1.24 633.28 36.5 626.16 61.02 658.64 22.32 706.96 -21.65 752.58 -54.2 807.27 -82.91 868.74 -105.25 932.33 -122.14 995.13 -129.86 1052.13 -128.46 1098.08 -119.64 1129.41 -102.66 1142.47 -79.09 1136.92 -49.95 1112.33 -16.65 1071.19 19.05 1020.78 57.62 965.52 96.55 913.23 134.64 873.67 173.69 851.38 210.82 851.24 245.41 875.56 280.15 921.46 312.02 983.65 340.73 1053.91 369.43 1122.09 394.97 1177.61 417.13Q1177.61 417.13 1177.61 417.13" opacity="0.51"></path><path d="M1123.67 262.19C1156.51 282.5 1166.46 300.45 1153.01 316.24 1118.86 332.23 1067.81 346.43 1006.43 359.33 941.58 373.05 880.34 386.28 828.82 399.83 791.6 415.27 771.27 432.27 768.13 451.78 782.05 474.54 809.05 501.12 844.79 532.31 886.93 567.51 928.64 607.77 965.58 653.01 996.5 701.05 1016.52 752.54 1024.39 805.93 1020.85 857.82 1005.04 907.66 978.61 952.65 943.05 989.66 900.56 1017.13 853.74 1032.6 803.3 1035.66 752.47 1025.2 703.11 1001.55 654.66 968.74 609.81 927.8 569.11 882.84 531.32 841.02 497.88 805.1 468.4 780.24 441.75 771.81 418.19 780.88 396.95 808.39 377.57 852.97 359.41 910.6 341.76 975.56 324.98 1040.61 307.88 1098.33 289.97 1141.23 272.29 1164.16 253.37 1163.28 233.06 1137.89 212.75 1092.32 191.52 1032.45 169.63 966.58 147.97 903.1 126.09 849.54 104.56 811.73 83.9 793.69 64.42 795.85 46.95 816.3 31.33 852.93 18.82 898.94 10.26 948.08 4.54 996.61 3.65 1036.89 8.09 1064.82 15.43 1079.28 27.91 1077.35 45.04 1059.78 63.1 1028.37 83.69 985.37 105.07 934.42 122.82 877.89 137.42 820.07 146.36 764.18 146.16 711.3 136.62 664.6 116.17 625.09 84.31 592.64 41.68 567.86 -10.38 549.9 -68.48 538.53 -129.88 532.12 -190.13 529.11 -243.99 530.19 -287.55 532.42 -316.36 534.48 -328.11 538.27 -321 540.36 -295.24 540.01 -255.19 540.03 -203.65 536.98 -146.64 530.57 -93.1 524.1 -48.03 514.2 -17.9 500.81 -8.46 487.36 -20.47 470.51 -53.31 450.2 -103.74 429.88 -163.41 406.59 -224.26 380.47 -280.31 354.29 -322.85 325.21 -347.06 293.37 -351.51 261.46 -334.7 226.89 -299.13 190.01 -248.85 153.5 -188.97 115.33 -125.61 76.34 -63.88 39.08 -9.32 2.52 34.27 -31.91 72.44 -75.24 61.38 -124.24 24.47 -123.58 -7.42 -113.14 -39.1 -94.32 -67.61 -68.07 -93.22 -38.8 -111.64 -6.34 -121.99 26.2 -123.11 63.35 -76.6 71.34 -34.9 29.88 -1.62 -16.15 33.86 -72.99 70.19 -136.41 108.29 -200.44 145.74 -259.67 181.68 -307.77 218.08 -339.68 252.32 -351.54 284 -341.33 315.66 -311.36 344.65 -263.78 370.78 -204.32 396.86 -142.47 420.15 -84.66 440.46 -39.09 460.78 -13.7 477.64 -10.76 491.12 -29.67 504.56 -68.56 514.56 -120.3 521.2 -177.51 527.83 -234.63 531.22 -282.56 531.68 -315.67 532.59 -331.72 531.22 -327.56 528.32 -304.25 527.2 -264.5 526.04 -212.02 526.11 -152.08 530.21 -89 537.7 -28.38 550.03 25.57 568.73 70.37 594.01 103.45 626.68 124.37 666.09 132.89 712.41 130.78 764.64 120.39 819.77 102.02 876.8 80.08 932.69 57.26 983.32 32.93 1026.47 11.67 1058.6 -5.05 1079.41 -22.93 1024.72 -22.66 958.87 -6.35 910.4 9.33 863.75 28.41 824.93 49.83 800.83 73.14 793.72 97.53 806.01 122.13 838.05 147.53 886.58 172.32 946.65 195.9 1011.51 219.68 1073.24 241.87 1123.67 262.19Q1123.67 262.19 1123.67 262.19" opacity="0.53"></path><path d="M1070.59 227.89C1101.12 246.36 1112.78 265.47 1104.96 285.29 1079.47 305.29 1038.51 326.34 986.63 348.74 928.74 371.8 870.18 396.78 816.03 424.05 770.31 452.52 736.27 483.81 715.56 518.11 709.24 553.78 715.97 592.48 733.63 633.93 761.25 675.84 794.18 719.47 828.94 763.71 864.64 805.99 896.29 846.59 921.63 883.7 946.05 927.76 937.34 964.85 906.7 952.34 877.57 932.56 843.61 904.32 806.49 869.47 766.21 832.91 725.08 795.55 684.36 761.08 643.01 734.87 603.4 718.3 566.12 714.3 529.45 725.32 495.45 750.89 464.19 790.17 433.75 840.56 405.78 898.25 380.13 958.22 355 1014.8 331.76 1062.55 310.25 1096.15 288.9 1112.38 268.98 1108.62 250.51 1084.59 232.05 1043.85 215.46 990.69 200.85 931.32 186.39 872.05 174.19 818.74 164.49 776.37 152.19 742.95 144.36 777.62 149.63 832.44 154.91 876.54 163.31 919.43 174.34 957.09 190.58 998.3 220.14 1005.18 226.08 971.13 222.49 935.81 212.75 893.6 195.6 847.09 170.37 797.26 137.08 747.24 95.97 698.92 48.83 652.22 -3.37 609.57 -58.31 571.55 -112.3 537.43 -163.12 508.22 -207.22 483.49 -252.24 453.92 -252.16 413.12 -205.85 397.62 -162.12 388.9 -112.38 379.67 -61.62 369.31 -16.86 359.53 18.65 348 40.49 334.35 44.65 320.83 31.13 304.92 0.59 286.45 -44.55 267.99 -97.82 247.4 -153.18 224.95 -206.4 202.63 -250.34 178.72 -280.79 153.67 -296.21 129.21 -294.04 104.23 -275.06 79.44 -241.51 56.1 -196.04 33.98 -142.84 14.01 -85.6 -3.25 -28.86 -17.09 23.53 -26.53 69.09 -32.13 105.14 -32.36 130.63 -26.7 144.93 -17.15 148.82 -1.98 143.82 18.29 130.14 40.18 111.17 64.85 89.31 90.48 64.3 112.78 40.29 131.95 19.01 145.47 -0.72 149.89 -15.53 144.97 -24.9 129.2 -30.58 101.91 -30.55 63.84 -25.31 16.26 -16.39 -37.87 -3.16 -95.81 13.45 -153.44 32.68 -205.99 54.08 -249.63 76.76 -280.14 100.86 -295.08 125.24 -292.43 149.22 -271.88 173.77 -236.64 197.31 -188.78 219.37 -133.16 241.57 -77.44 262.03 -26.15 280.5 14.58 298.97 38.62 315 44.27 328.77 31.7 342.68 1.75 354.58 -40.55 364.86 -90 375.71 -142.85 385.54 -191.72 394.95 -231.7 405.77 -260.55 417.17 -274.1 429.95 -271.59 445.33 -254.07 463.3 -222.45 484.7 -179.77 509.78 -128.83 539.19 -73.58 573.33 -17.79 611.17 36.28 653.46 85.08 699.63 126.67 747.33 160.25 796.7 184.79 845.91 200.67 891.98 207.92 934 208.17 969.48 203.1 1004.62 185.85 1002.55 142.6 964.38 123.92 928.45 112.8 886.77 105.3 843.06 101.63 786.67 100.08 741.59 116.72 767.46 133.1 805.03 145.53 854.41 159.92 911.28 175.89 970.3 192.04 1025.44 209.43 1070.59 227.89Q1070.59 227.89 1070.59 227.89" opacity="0.09"></path><path d="M1017.09 343.79C1059.26 377.04 1038.37 420 965.16 471.79 863.42 523.93 762.21 584.85 687.09 651.92 652.48 715.83 659.23 779.38 695.79 834.42 753.63 873.24 809.51 890.8 849.67 880.31 873.52 848.16 871.13 793.9 846.57 729.72 805.21 680.36 751.91 656.34 694.71 673.47 632.45 736.21 573.75 832.86 522.32 939.38 470.56 1024.51 427.34 1060.44 394.1 1031.09 360.86 948.74 339.17 841.69 328.24 746.48 316.98 690.84 315.21 686.12 319.86 725.15 319.46 795.94 318.02 869.09 308.15 923.04 281.47 950.61 236.15 940.48 168.73 898.53 85 832.1 -10.27 752.48 -102.73 671.59 -173.9 590.47 -210.46 519.27 -200.22 459.78 -149.46 406.52 -67.17 362.37 21.72 324.36 82.11 288.7 96.26 254.93 54.09 221.69 -34.45 188.45 -133.35 157.31 -208.91 130.28 -242.6 105.6 -220.56 89.28 -152.6 84.93 -56.46 86.82 44.59 103.26 129.9 133.16 202.06 178.77 177.42 201.34 133.12 124.52 104.19 35.97 88.36 -66.98 86.72 -162.14 91.02 -225.54 107.06 -239.75 131.43 -196.96 158.04 -114.58 188.94 -14.27 222.18 68.08 255.42 97.45 289.43 68.27 325.51 -4.01 363.83 -97.71 408.25 -175.45 461.56 -213.83 520.81 -206.6 591.37 -152.78 671.53 -68.81 751.48 29.97 830.39 123.64 896.87 199.36 939.98 253.43 952.57 283.59 928.43 296.01 877.73 292.2 806.49 283.39 734.71 277.09 691.11 267.63 687.99 267.17 734.51 277.72 822.91 288.62 928.53 310.56 1017.09 343.79Q1017.09 343.79 1017.09 343.79" opacity="0.63"></path><path d="M963.61 508.81C1003.99 538.36 994.25 574.78 940.22 616.08 856.87 656 763.37 697.84 680.01 737.28 605.72 782.05 638.21 789.23 699.19 739.75 754.77 672.83 775.96 602.27 745.38 656.75 714.8 733.6 679.57 827.41 643.91 917.96 606.62 983.74 572.2 1006.82 542.65 977.6 513.1 906.23 489.83 812.09 471.4 721.39 451.34 655.28 432.82 626.19 412.19 634.66 384.91 677.12 349.56 735.72 302.46 793.91 244.73 845.51 174.13 874.46 93.91 878.09 14.1 860.19 -60.71 821.56 -118.31 770.17 -149.26 708.61 -146.92 645 -108.7 584.92 -47 524.13 29.67 470.32 101.62 424.73 144.25 379.81 148 342.33 107.62 312.78 30.35 283.23 -57.58 263.02 -131.93 252.22 -178.97 242.08 -183.5 242.15 -147.47 251.73 -79.99 260.6 5.68 275.55 93.17 291.58 172.82 297.43 233.9 293.64 273.84 272.81 292.89 230.46 295.81 166.47 289.78 84.11 274.07 -4.83 259.69 -89.94 251.4 -154.05 242.45 -184.18 242.85 -171.91 253.28 -117.2 264.33 -37.9 284.66 50.24 314.21 121.61 343.75 150.83 381.12 133.73 425.79 79.36 471.08 0.21 524.43 -76.77 584.59 -131.96 644.08 -157.88 707.12 -145.19 768.37 -99.74 819.94 -29.82 859.44 52.45 879.12 134.48 877.9 211.95 851.86 275.83 802.97 324.74 746.24 360.91 687.06 385.74 641.24 404.09 626.87 415.85 648.22 427.77 706.66 443.57 792.41 457.99 886.34 479.26 963.61 508.81Q963.61 508.81 963.61 508.81" opacity="0.26"></path><path d="M910.09 578.71C947.95 604.57 947.27 629.13 910.83 651.12 847.55 671.65 768.67 686.94 688.58 694.46 617.41 697.57 564.37 690.12 532.69 671.18 523.29 648.56 531.38 617.43 550.2 582.32 579.43 554.97 608.12 535.61 631.12 532.16 652.86 551.86 664.63 594.74 666.24 659.5 664.41 738.26 654.12 821 637.2 892.74 619.01 940.15 596.48 952.38 570.63 924.09 544.77 863.34 516.81 782.69 486.25 700.02 454.41 630.28 417.67 584.46 374.69 566.78 328.27 578.28 273.93 610.56 212.34 653.54 149.5 703.91 83.69 747.41 20.57 777.87 -51.49 798.98 -68.7 749.15 -1.55 696.26 59.57 655.02 123.74 614.15 177.05 576.82 203.51 538.66 198.95 505.89 161.09 480.03 94.84 454.18 18.64 436.46 -50.86 425.86 -104.7 414.43 -128.94 408.26 -121.41 404.7 -86.02 396.69 -27.69 386.33 43.08 369.32 119.66 341.66 192.06 301.94 254.24 248.25 305.6 183.92 343.34 109.76 369.54 32.47 390.32 -65.16 409.58 -109.08 424.25 -33.77 435.01 38.9 452.82 114.32 478.68 175.07 504.53 203.38 537.21 196.4 575.21 158.97 612.41 97.21 653.19 29.18 694.49 -30.62 731.54 -76.44 764.38 -96.13 788.32 -88.91 801.97 -58.55 801.34 -8.53 783.87 52.69 755.58 121.68 713.83 189.94 664.16 252.41 620.31 311.19 585.16 361.22 568.73 402.91 580.14 440.19 619.09 471.94 682.92 500.16 762.41 526.94 843.84 552.86 910.09 578.71Q910.09 578.71 910.09 578.71" opacity="0.68"></path><path d="M856.61 492.44C891.16 514.6 897.3 529.9 876.11 538.35 832.68 546.36 772.54 546.85 704.85 539.97 636.09 532.76 574 519.1 523.44 500.96 474.43 479.1 455.52 470.94 468.26 505.76 482.23 549.23 493.49 606.77 499.64 674.39 506.31 744.6 506.27 810.66 498.87 862.72 491.28 893.63 476.53 897.16 454.37 870.6 432.21 820.08 403.69 753.12 369.49 681.24 335.09 614.11 294.82 560.06 249.74 524.17 205.19 508.98 157.44 512.31 109.31 529.6 65.89 559.94 27.13 594.06 -2.39 626.23 -20.19 658.45 -23.22 682.16 -8.91 695.94 18.57 704.61 60.79 703.58 113.3 694.62 164.75 681.96 212.27 664.24 247.15 643.66 259.79 622.01 249.16 599.54 214.61 577.38 159.09 555.22 95.11 534.41 33.37 514.28 -21.18 493.06 -57.23 470.47 -71.23 444.72 -64.81 415.29 -37.35 379.83 5.86 337 60.89 289.07 121.64 233.55 182.31 172.28 242.36 111.07 296.38 50.68 342.78 -2.74 384.02 -43.1 418.14 -66.32 446.55 -67.38 471.35 -47.73 493.3 -6.31 514.12 52.26 533.9 115.59 554.54 178.06 576.7 228.58 598.86 255.15 621.5 256.12 643.51 233.77 664.48 190.27 682.85 136.82 696.44 82.86 707.63 12.64 678.38 -25.2 636.28 8.42 604.65 47.02 570.18 93.15 538.23 142 518.08 194.3 510.49 244.46 520.31 290.07 550.55 335.36 599.22 375.18 662.33 408.97 732.62 442.31 801.09 470.28 856.61 492.44Q856.61 492.44 856.61 492.44" opacity="0.10"></path><path d="M803.08 325.33C838.96 350.07 789.81 372.71 719.9 374.17 664.14 376.04 607.4 376.94 553.97 379.08 504.89 386.41 463.33 398.4 429.97 417.3 404.01 444.49 385.14 480.6 371.59 525.64 363.28 577.09 357.23 633.99 351.37 692.32 347.73 746.79 341.96 793.6 332.68 827.01 323.88 844.01 310.57 841.11 292.1 817.07 273.63 776.33 250.89 722.91 224.86 663.7 199.31 604.32 171.49 550.28 143.12 505.83 79.27 458.7 70.66 505.61 110.34 532.04 144.54 549.06 184.72 560.47 226.94 565.57 278.06 568.75 305.83 544.9 268.08 519.71 222.94 501.25 171.28 478.62 119.49 452.09 69.46 425.12 29.51 393.49 2.9 357.32 -11.48 320.22 -10.42 278.4 4.32 232.92 30.23 187.97 65.5 141.58 106.33 96.64 152.03 57.2 198.56 24.19 243.24 1.43 288.14 -9.55 329.23 -6.2 365.62 12.88 400.99 43.78 431.94 87.32 458.44 139.57 484.49 191.65 506.86 241.33 525.32 282.07 550.64 309.43 575.91 258.45 573.87 199.36 569.48 154.57 558.8 114.23 542.37 82.01 488.73 50.33 460.18 121.04 495.86 165.92 536 198.02 586.46 228.51 643.62 255.74 702.54 283.35 757.94 306.87 803.08 325.33Q803.08 325.33 803.08 325.33" opacity="1.00"></path><path d="M749.44 223.44C789.94 252.98 778.05 278.92 725.07 305.91 645.82 339.75 557.61 386.14 478.52 450.29 408.04 526.82 354.12 616.92 314.12 703.65 280.43 767.7 250.64 792.74 221.09 763.52 191.54 692.15 165.04 597.29 147.53 507.38 136.33 436.57 144.13 393.92 175.88 375.49 216.25 378.62 273.11 387.74 330.7 390.27 362.02 396.38 361.94 386.87 321.44 357.33 244.1 327.79 161.33 281 97.46 223.68 55.23 169.95 50.78 114.71 76.3 72.85 122.23 52.55 179.64 63.86 234.24 113 291.91 181.24 338.67 264.12 368.22 335.5 397.77 364.74 407.3 351.69 400.83 309.3 397.44 244.23 386.15 185.45 378.95 147.65 392.15 122.23 427.94 121.94 491.83 139.31 577.36 163.53 672.1 193.89 749.44 223.44Q749.44 223.44 749.44 223.44" opacity="0.72"></path><path d="M696.11 275.88C730.66 298.04 734.66 330.09 712.44 370.93 671.05 413.76 616.12 467.72 558.69 529.32 498.24 589.83 443.68 650.5 399.59 700.05 356.83 731.24 323.44 736.66 301.28 710.1 279.12 659.58 270.28 592.04 274.64 521.77 280.32 454.64 300.3 398.37 331.71 356.13 360.09 324.79 391.52 302.7 416.66 284.94 422.65 271.05 409.66 254.49 375.11 232.33 319.59 210.17 259.52 184.5 206.78 159.99 145.12 133.1 131.79 158.72 162.46 225.98 188.9 280.01 215.54 338.56 237.7 389.08 259.86 415.65 275.45 419.22 287.41 404.28 303.05 370.98 321.83 333.81 348.88 302.34 386.94 269.78 438.85 250.41 502.56 245.98 571.54 243.54 640.59 253.72 696.11 275.88Q696.11 275.88 696.11 275.88" opacity="0.14"></path><path d="M642.49 436.65C682.96 466.2 666.38 529.94 619.34 601.03 555.3 656.74 494.65 685.76 465.1 656.54 435.55 585.16 442.71 488.86 468.02 408.18 476.33 335.78 468.96 283.27 428.49 253.72 351.17 224.18 278.81 223.18 239.7 256.86 210.62 298.81 214.99 371.16 244.54 442.54 274.08 471.76 323.21 466.69 391.03 449.71 468.86 417.34 565.17 407.11 642.49 436.65Q642.49 436.65 642.49 436.65" opacity="0.34"></path></g></svg>